<?xml version="1.0" standalone="no"?>
<!DOCTYPE svg PUBLIC "-//W3C//DTD SVG 20010904//EN"
 "http://www.w3.org/TR/2001/REC-SVG-20010904/DTD/svg10.dtd">
<svg version="1.0" xmlns="http://www.w3.org/2000/svg"
 width="512.000000pt" height="512.000000pt" viewBox="0 0 512.000000 512.000000"
 preserveAspectRatio="xMidYMid meet">
<metadata>
Created by potrace 1.14, written by Peter Selinger 2001-2017
</metadata>
<g transform="translate(0.000000,512.000000) scale(0.100000,-0.100000)"
fill="#000000" stroke="none">
<path d="M740 4560 c0 -526 1 -560 18 -561 9 0 475 -1 1035 -1 559 0 1017 -3
1017 -5 0 -3 -341 -427 -409 -508 -9 -11 -91 -112 -181 -225 -91 -113 -169
-210 -175 -216 -5 -6 -62 -75 -125 -153 -230 -285 -312 -387 -345 -426 -18
-22 -93 -114 -166 -205 -73 -91 -208 -257 -299 -370 -92 -113 -226 -279 -299
-370 -73 -91 -148 -183 -166 -205 -18 -22 -67 -82 -109 -133 l-76 -94 0 -544
0 -544 2100 0 2100 0 0 559 0 559 -1252 1 c-689 0 -1266 0 -1282 0 -26 1 -27
3 -15 20 19 26 132 165 139 171 3 3 50 61 106 130 55 69 107 134 116 145 10
11 130 160 269 330 138 171 266 328 284 350 18 22 190 234 382 470 192 237
395 486 450 555 56 69 237 291 402 494 l299 369 0 484 0 483 -1909 0 -1909 0
0 -560z"/>
</g>
</svg>
