<svg width="474" height="446" viewBox="0 0 474 446" fill="none" xmlns="http://www.w3.org/2000/svg">
<path d="M237.8 420.3C363.721 420.3 465.8 328.16 465.8 214.5C465.8 100.84 363.721 8.70001 237.8 8.70001C111.879 8.70001 9.79999 100.84 9.79999 214.5C9.79999 328.16 111.879 420.3 237.8 420.3Z" fill="#8FE3F9"/>
<path d="M237.8 420.3C363.721 420.3 465.8 328.16 465.8 214.5C465.8 100.84 363.721 8.70001 237.8 8.70001C111.879 8.70001 9.79999 100.84 9.79999 214.5C9.79999 328.16 111.879 420.3 237.8 420.3Z" fill="#8FE3F9"/>
<path d="M243.8 416.3C295.9 416.3 343.9 401 382.3 375.3L371.8 350.6C349.8 298.7 297.6 264.8 239.7 264.8C181.8 264.8 129.6 298.7 107.6 350.6L99 371C138.3 399.3 188.8 416.3 243.8 416.3Z" fill="#B2EBF9"/>
<path d="M237.7 197.3L194.1 261.3L227 305.1C232.4 312.3 243.3 312.3 248.7 305.1L281.3 261.3L237.7 197.3Z" fill="#A4E0EA"/>
<path d="M237.8 396.3C116.3 396.3 17.1 310.6 10.2 202.5C9.90001 206.5 9.79999 210.5 9.79999 214.5C9.79999 328.1 111.9 420.3 237.8 420.3C363.7 420.3 465.8 328.2 465.8 214.5C465.8 210.5 465.7 206.5 465.4 202.5C458.5 310.6 359.2 396.3 237.8 396.3Z" fill="#7AD1E5"/>
<path d="M374.6 355.1C336.5 380.9 289.1 396.3 237.8 396.3C187.8 396.3 141.6 381.8 104.1 357.2L99.1 369.5C138.5 398.7 188.9 416.3 243.9 416.3C293.6 416.3 339.6 401.9 377.1 377.5C378.9 376.3 380.6 375 382.4 373.7L374.6 355.1Z" fill="#A4E0EA"/>
<path d="M4.20001 215.2C10.6 228.3 19.2 240.5 30 251.4C82.3 303.7 167.2 303.7 219.5 251.4C263.3 207.6 270.4 141.1 241 89.9" fill="#7AD1E5"/>
<path d="M465 230.8C441 266.9 400 290.6 353.4 290.6C279.4 290.6 219.4 230.6 219.4 156.6C219.4 123.6 231.3 93.4 251.1 70" fill="#7AD1E5"/>
<path d="M237.8 420.3C363.721 420.3 465.8 328.16 465.8 214.5C465.8 100.84 363.721 8.70001 237.8 8.70001C111.879 8.70001 9.79999 100.84 9.79999 214.5C9.79999 328.16 111.879 420.3 237.8 420.3Z" stroke="#413D51" stroke-width="16" stroke-miterlimit="10" stroke-linecap="round" stroke-linejoin="round"/>
<path d="M237.7 169.3L194.1 233.3L237.9 291.6L281.4 233.3L237.7 169.3Z" fill="#413D51"/>
<path d="M237.7 169.3L194.1 233.3L237.9 291.6L281.4 233.3L237.7 169.3Z" stroke="#413D51" stroke-width="16" stroke-miterlimit="10" stroke-linecap="round" stroke-linejoin="round"/>
<path d="M336.7 30.9C306.7 16.9 272.6 9 236.7 9C200.8 9 166.7 16.9 136.7 30.9V171H336.7V30.9Z" fill="#413D51"/>
<path d="M349.5 44.9L458.2 41.6C442.5 80.9 440.4 140 454.1 204.6C436.7 241.4 399.7 267.5 356.2 268.8C294.4 270.7 242.7 222.1 240.9 160.2C239 98.4 287.6 46.8 349.5 44.9Z" fill="#413D51"/>
<path d="M349.5 44.9L458.2 41.6C442.5 80.9 440.4 140 454.1 204.6C436.7 241.4 399.7 267.5 356.2 268.8C294.4 270.7 242.7 222.1 240.9 160.2C239 98.4 287.6 46.8 349.5 44.9Z" stroke="#413D51" stroke-width="16" stroke-miterlimit="10" stroke-linecap="round" stroke-linejoin="round"/>
<path d="M353.4 268.7C415.256 268.7 465.4 218.556 465.4 156.7C465.4 94.8441 415.256 44.7 353.4 44.7C291.544 44.7 241.4 94.8441 241.4 156.7C241.4 218.556 291.544 268.7 353.4 268.7Z" fill="#F7E8AD"/>
<path d="M353.4 268.7C415.256 268.7 465.4 218.556 465.4 156.7C465.4 94.8441 415.256 44.7 353.4 44.7C291.544 44.7 241.4 94.8441 241.4 156.7C241.4 218.556 291.544 268.7 353.4 268.7Z" fill="#F7E8AD"/>
<path d="M432.6 77.5C411.1 56 382.9 45.1 354.7 44.7C375.9 48.8 396.2 59 412.6 75.5C456.3 119.2 456.3 190.1 412.6 233.9C390.4 256.1 361.2 267 332.2 266.7C367.5 273.5 405.3 263.2 432.6 235.9C476.3 192.1 476.3 121.2 432.6 77.5Z" fill="#F7D6A1"/>
<path opacity="0.7" d="M386.521 216.522C419.325 183.718 419.135 130.343 386.097 97.3046C353.059 64.2666 299.683 64.0766 266.88 96.8803C234.076 129.684 234.266 183.059 267.304 216.097C300.342 249.135 353.717 249.325 386.521 216.522Z" fill="white"/>
<path d="M447.4 103.6C444.3 99.6 438.3 88.6 434.6 84.9C390.6 41.5 319.7 41.9 276.3 86C267.7 94.7 260.8 104.5 255.7 115C317.4 93.3 385 98.5 447.4 103.6Z" fill="#EFCA92"/>
<path d="M353.4 268.7C415.256 268.7 465.4 218.556 465.4 156.7C465.4 94.8441 415.256 44.7 353.4 44.7C291.544 44.7 241.4 94.8441 241.4 156.7C241.4 218.556 291.544 268.7 353.4 268.7Z" stroke="#413D51" stroke-width="16" stroke-miterlimit="10" stroke-linecap="round" stroke-linejoin="round"/>
<path d="M353.4 268.7C415.256 268.7 465.4 218.556 465.4 156.7C465.4 94.8441 415.256 44.7 353.4 44.7C291.544 44.7 241.4 94.8441 241.4 156.7C241.4 218.556 291.544 268.7 353.4 268.7Z" stroke="#413D51" stroke-width="16" stroke-miterlimit="10" stroke-linecap="round" stroke-linejoin="round"/>
<path d="M442.7 89.1C439.6 85.1 436.3 81.2 432.6 77.5C388.9 33.8 318 33.8 274.2 77.5C265.5 86.2 258.6 95.9 253.4 106.3C315.4 85.1 380.3 83.5 442.7 89.1Z" fill="#413D51"/>
<path d="M298.9 207.1C322.096 207.1 340.9 188.296 340.9 165.1C340.9 141.904 322.096 123.1 298.9 123.1C275.704 123.1 256.9 141.904 256.9 165.1C256.9 188.296 275.704 207.1 298.9 207.1Z" fill="#413D51"/>
<path d="M275.1 179.4C282.832 179.4 289.1 173.132 289.1 165.4C289.1 157.668 282.832 151.4 275.1 151.4C267.368 151.4 261.1 157.668 261.1 165.4C261.1 173.132 267.368 179.4 275.1 179.4Z" fill="white"/>
<path d="M124.8 44.9L16 41.6C31.7 80.9 33.8 140 20.1 204.6C37.5 241.4 74.5 267.5 118 268.8C179.8 270.7 231.5 222.1 233.3 160.2C235.2 98.4 186.6 46.8 124.8 44.9Z" fill="#413D51"/>
<path d="M124.8 44.9L16 41.6C31.7 80.9 33.8 140 20.1 204.6C37.5 241.4 74.5 267.5 118 268.8C179.8 270.7 231.5 222.1 233.3 160.2C235.2 98.4 186.6 46.8 124.8 44.9Z" stroke="#413D51" stroke-width="16" stroke-miterlimit="10" stroke-linecap="round" stroke-linejoin="round"/>
<path d="M120.8 268.7C182.656 268.7 232.8 218.556 232.8 156.7C232.8 94.8441 182.656 44.7 120.8 44.7C58.9441 44.7 8.79999 94.8441 8.79999 156.7C8.79999 218.556 58.9441 268.7 120.8 268.7Z" fill="#F7E8AD"/>
<path d="M120.8 268.7C182.656 268.7 232.8 218.556 232.8 156.7C232.8 94.8441 182.656 44.7 120.8 44.7C58.9441 44.7 8.79999 94.8441 8.79999 156.7C8.79999 218.556 58.9441 268.7 120.8 268.7Z" fill="#F7E8AD"/>
<path d="M41.6 77.5C63.1 56 91.3 45.1 119.5 44.7C98.3 48.8 78 59 61.6 75.5C17.9 119.2 17.9 190.1 61.6 233.9C83.8 256.1 113 267 142 266.7C106.7 273.5 68.9 263.2 41.6 235.9C-2.09999 192.1 -2.09999 121.2 41.6 77.5Z" fill="#F7D6A1"/>
<path opacity="0.7" d="M206.907 216.118C239.945 183.08 240.135 129.704 207.331 96.9007C174.527 64.0969 121.152 64.2869 88.114 97.3249C55.076 130.363 54.886 183.738 87.6898 216.542C120.493 249.346 173.869 249.156 206.907 216.118Z" fill="white"/>
<path opacity="0.89" d="M26.9 103.6C30 99.6 36 88.6 39.7 84.9C83.7 41.5 154.6 41.9 198 86C206.6 94.7 213.5 104.5 218.6 115C156.8 93.3 89.2 98.5 26.9 103.6Z" fill="#EFCA92"/>
<path d="M120.8 268.7C182.656 268.7 232.8 218.556 232.8 156.7C232.8 94.8441 182.656 44.7 120.8 44.7C58.9441 44.7 8.79999 94.8441 8.79999 156.7C8.79999 218.556 58.9441 268.7 120.8 268.7Z" stroke="#413D51" stroke-width="16" stroke-miterlimit="10" stroke-linecap="round" stroke-linejoin="round"/>
<path d="M120.8 268.7C182.656 268.7 232.8 218.556 232.8 156.7C232.8 94.8441 182.656 44.7 120.8 44.7C58.9441 44.7 8.79999 94.8441 8.79999 156.7C8.79999 218.556 58.9441 268.7 120.8 268.7Z" stroke="#413D51" stroke-width="16" stroke-miterlimit="10" stroke-linecap="round" stroke-linejoin="round"/>
<path d="M31.6 89.1C34.7 85.1 38 81.2 41.7 77.5C85.4 33.8 156.3 33.8 200.1 77.5C208.8 86.2 215.7 95.9 220.9 106.3C158.9 85.1 93.9 83.5 31.6 89.1Z" fill="#413D51"/>
<path d="M175.4 207.1C198.596 207.1 217.4 188.296 217.4 165.1C217.4 141.904 198.596 123.1 175.4 123.1C152.204 123.1 133.4 141.904 133.4 165.1C133.4 188.296 152.204 207.1 175.4 207.1Z" fill="#413D51"/>
<path d="M199.2 179.4C206.932 179.4 213.2 173.132 213.2 165.4C213.2 157.668 206.932 151.4 199.2 151.4C191.468 151.4 185.2 157.668 185.2 165.4C185.2 173.132 191.468 179.4 199.2 179.4Z" fill="white"/>
<path d="M183.9 445.3C175.1 445.3 167.9 438.1 167.9 429.3V411.3C167.9 402.5 175.1 395.3 183.9 395.3C192.7 395.3 199.9 402.5 199.9 411.3V429.3C199.9 438.1 192.8 445.3 183.9 445.3Z" fill="#413D51"/>
<path d="M151.9 445.3C143.1 445.3 135.9 438.1 135.9 429.3V411.3C135.9 402.5 143.1 395.3 151.9 395.3C160.7 395.3 167.9 402.5 167.9 411.3V429.3C167.9 438.1 160.8 445.3 151.9 445.3Z" fill="#413D51"/>
<path d="M215.7 445.3C206.9 445.3 199.7 438.1 199.7 429.3V411.3C199.7 402.5 206.9 395.3 215.7 395.3C224.5 395.3 231.7 402.5 231.7 411.3V429.3C231.7 438.1 224.5 445.3 215.7 445.3Z" fill="#413D51"/>
<path d="M257.9 445.3C249.1 445.3 241.9 438.1 241.9 429.3V411.3C241.9 402.5 249.1 395.3 257.9 395.3C266.7 395.3 273.9 402.5 273.9 411.3V429.3C273.9 438.1 266.7 445.3 257.9 445.3Z" fill="#413D51"/>
<path d="M289.7 445.3C280.9 445.3 273.7 438.1 273.7 429.3V411.3C273.7 402.5 280.9 395.3 289.7 395.3C298.5 395.3 305.7 402.5 305.7 411.3V429.3C305.7 438.1 298.5 445.3 289.7 445.3Z" fill="#413D51"/>
<path d="M321.7 445.3C312.9 445.3 305.7 438.1 305.7 429.3V411.3C305.7 402.5 312.9 395.3 321.7 395.3C330.5 395.3 337.7 402.5 337.7 411.3V429.3C337.7 438.1 330.5 445.3 321.7 445.3Z" fill="#413D51"/>
<path d="M227.9 314.6C227.9 323 221.1 329.8 212.7 329.8C204.3 329.8 197.5 323 197.5 314.6" stroke="#413D51" stroke-width="8" stroke-miterlimit="10" stroke-linecap="round" stroke-linejoin="round"/>
<path d="M274.4 314.6C274.4 323 267.6 329.8 259.2 329.8C250.8 329.8 244 323 244 314.6" stroke="#413D51" stroke-width="8" stroke-miterlimit="10" stroke-linecap="round" stroke-linejoin="round"/>
<path opacity="0.31" d="M59 275.8C56.8 280.5 51.3 282.6 46.5 280.4C41.7 278.2 39.7 272.7 41.9 267.9" stroke="#72C8D6" stroke-width="8" stroke-miterlimit="10" stroke-linecap="round" stroke-linejoin="round"/>
<path opacity="0.31" d="M88.8 291.3C86.6 296 81.1 298.1 76.3 295.9C71.6 293.7 69.5 288.2 71.7 283.4" stroke="#72C8D6" stroke-width="8" stroke-miterlimit="10" stroke-linecap="round" stroke-linejoin="round"/>
<path opacity="0.31" d="M71.5 303.2C69.3 307.9 63.8 310 59 307.8C54.3 305.6 52.2 300.1 54.4 295.3" stroke="#72C8D6" stroke-width="8" stroke-miterlimit="10" stroke-linecap="round" stroke-linejoin="round"/>
<path opacity="0.31" d="M97.7 323.1C95.5 327.8 90 329.9 85.2 327.7C80.5 325.5 78.4 320 80.6 315.2" stroke="#72C8D6" stroke-width="8" stroke-miterlimit="10" stroke-linecap="round" stroke-linejoin="round"/>
<path opacity="0.31" d="M117.7 305.1C115.5 309.8 110 311.9 105.2 309.7C100.5 307.5 98.4 302 100.6 297.2" stroke="#72C8D6" stroke-width="8" stroke-miterlimit="10" stroke-linecap="round" stroke-linejoin="round"/>
<path opacity="0.31" d="M419.7 277.8C421.9 282.5 427.4 284.6 432.2 282.4C437 280.2 439 274.7 436.8 269.9" stroke="#72C8D6" stroke-width="8" stroke-miterlimit="10" stroke-linecap="round" stroke-linejoin="round"/>
<path opacity="0.31" d="M390 293.3C392.2 298 397.7 300.1 402.5 297.9C407.2 295.7 409.3 290.2 407.1 285.4" stroke="#72C8D6" stroke-width="8" stroke-miterlimit="10" stroke-linecap="round" stroke-linejoin="round"/>
<path opacity="0.31" d="M407.2 305.2C409.4 309.9 414.9 312 419.7 309.8C424.4 307.6 426.5 302.1 424.3 297.3" stroke="#72C8D6" stroke-width="8" stroke-miterlimit="10" stroke-linecap="round" stroke-linejoin="round"/>
<path opacity="0.31" d="M381.1 325.1C383.3 329.8 388.8 331.9 393.6 329.7C398.3 327.5 400.4 322 398.2 317.2" stroke="#72C8D6" stroke-width="8" stroke-miterlimit="10" stroke-linecap="round" stroke-linejoin="round"/>
<path opacity="0.31" d="M361.1 307.1C363.3 311.8 368.8 313.9 373.6 311.7C378.3 309.5 380.4 304 378.2 299.2" stroke="#72C8D6" stroke-width="8" stroke-miterlimit="10" stroke-linecap="round" stroke-linejoin="round"/>
<path d="M204.7 351.1C204.7 359.5 197.9 366.3 189.5 366.3C181.1 366.3 174.3 359.5 174.3 351.1" stroke="#413D51" stroke-width="8" stroke-miterlimit="10" stroke-linecap="round" stroke-linejoin="round"/>
<path d="M251.2 351.1C251.2 359.5 244.4 366.3 236 366.3C227.6 366.3 220.8 359.5 220.8 351.1" stroke="#413D51" stroke-width="8" stroke-miterlimit="10" stroke-linecap="round" stroke-linejoin="round"/>
<path d="M297.7 351.1C297.7 359.5 290.9 366.3 282.5 366.3C274.1 366.3 267.3 359.5 267.3 351.1" stroke="#413D51" stroke-width="8" stroke-miterlimit="10" stroke-linecap="round" stroke-linejoin="round"/>
</svg>
